<svg xmlns="http://www.w3.org/2000/svg" width="105" height="93" viewBox="0 0 105 93"><g><g clip-path="url(#clip-9AF256F5-6D2D-4CF5-B1E3-C5CE2C7CFD3E)" opacity=".08"><g opacity=".08"><path fill="#335262" d="M99 65.362l-18.014-6.623a2.3 2.3 0 0 1-1.482-1.845l-.924-6.54c6.447-3.68 10.443-10.58 10.462-18.068v-13.67c-.007-6.26-4.633-11.531-10.779-12.282l-1.99-4.026A4.181 4.181 0 0 0 71.167.233L58.884 4.672a17.07 17.07 0 0 0-8.834 8.032c5.936 4.994 9.364 12.405 9.349 20.214v3.98a38.083 38.083 0 0 0 5.7 16.917 6.984 6.984 0 0 1 .92 5.617 6.902 6.902 0 0 1-3.558 4.412c-.732.352-1.489.65-2.264.89l3.142.953c5.8 1.737 9.77 7.138 9.741 13.255v10.995a6.909 6.909 0 0 1-.42 2.306h30.063c1.26 0 2.28-1.032 2.28-2.306V74.025c-.008-3.874-2.405-7.333-6.004-8.663z"/></g><g opacity=".08"><path fill="#5a7a84" d="M66.402 92.239H2.29c-1.265 0-2.29-1.042-2.29-2.327V78.816c-.018-4.117 2.643-7.752 6.528-8.918l15.197-4.633a2.316 2.316 0 0 0 1.603-1.899l.37-2.618c-9.81 1.515-15.313-1.207-15.57-1.333a2.32 2.32 0 0 1-1.19-1.485 2.359 2.359 0 0 1 .309-1.89 42.688 42.688 0 0 0 6.491-19.652v-4.654c0-5.797 2.365-11.335 6.53-15.295 4.166-3.96 9.76-5.989 15.452-5.602 10.98.93 19.382 10.336 19.233 21.535v4.016a42.688 42.688 0 0 0 6.485 19.653c.365.555.477 1.243.308 1.889a2.32 2.32 0 0 1-1.19 1.485c-.252.126-5.754 2.846-15.57 1.333l.371 2.618c.126.896.75 1.637 1.603 1.9l15.204 4.632c3.885 1.166 6.546 4.8 6.528 8.918V89.91c0 1.286-1.026 2.328-2.29 2.328z"/></g></g></g></svg>