<?xml version="1.0" encoding="UTF-8"?>
<svg width="1165px" height="224px" viewBox="0 0 1165 224" version="1.1" xmlns="http://www.w3.org/2000/svg" xmlns:xlink="http://www.w3.org/1999/xlink">
    <!-- Generator: Sketch 62 (91390) - https://sketch.com -->
    <title>cta-bg</title>
    <desc>Created with Sketch.</desc>
    <defs>
        <path d="M1164.364,75.965 C1168.6207,57.5522879 1164.24713,38.2034692 1152.48493,23.4116402 C1140.72273,8.61981112 1122.85635,0 1103.958,0 L62.945,0 C44.655954,0 27.2998725,8.07445078 15.5193867,22.0640669 C3.73890094,36.0536829 -1.26397262,54.5308302 1.849,72.553 L18.988,171.775 C24.174,201.799 50.406,223.605 80.871,223.217 L1084.758,210.453 C1113.322,210.089 1137.941,190.256 1144.376,162.423 L1164.364,75.965 Z" id="path-1"></path>
    </defs>
    <g id="Page-1" stroke="none" stroke-width="1" fill="none" fill-rule="evenodd">
        <g id="cta-bg" transform="translate(-1.000000, 0.000000)">
            <g id="Group">
                <path d="M1164.364,75.965 C1168.6207,57.5522879 1164.24713,38.2034692 1152.48493,23.4116402 C1140.72273,8.61981112 1122.85635,0 1103.958,0 L62.945,0 C44.655954,0 27.2998725,8.07445078 15.5193867,22.0640669 C3.73890094,36.0536829 -1.26397262,54.5308302 1.849,72.553 L18.988,171.775 C24.174,201.799 50.406,223.605 80.871,223.217 L1084.758,210.453 C1113.322,210.089 1137.941,190.256 1144.376,162.423 L1164.364,75.965 Z" id="Path" fill="#F5EFE3" fill-rule="nonzero"></path>
                <g id="Clipped">
                    <mask id="mask-2" fill="white">
                        <use xlink:href="#path-1"></use>
                    </mask>
                    <g id="Path"></g>
                </g>
            </g>
        </g>
    </g>
</svg>