<svg xmlns="http://www.w3.org/2000/svg" width="38" height="46" viewBox="0 0 38 46"><g><g><g><path fill="#fff" d="M37.995 34.223c-1.039 2.301-1.535 3.328-2.873 5.361-1.864 2.839-4.494 6.375-7.753 6.405-2.895.027-3.639-1.884-7.569-1.861-3.93.023-4.749 1.895-7.644 1.868-3.259-.029-5.749-3.222-7.615-6.063-5.216-7.94-5.76-17.257-2.544-22.21 2.286-3.522 5.894-5.58 9.285-5.58 3.453 0 5.624 1.893 8.48 1.893 2.77 0 4.457-1.896 8.45-1.896 3.018 0 6.216 1.643 8.495 4.482-7.467 4.091-6.253 14.75 1.288 17.601z"/></g><g><path fill="#fff" d="M25.61 7.176C27.061 5.314 28.161 2.687 27.761 0c-2.37.162-5.14 1.67-6.758 3.635-1.469 1.783-2.682 4.428-2.21 6.999 2.585.081 5.262-1.464 6.817-3.458z"/></g></g></g></svg>