<svg width="17" height="17" viewBox="0 0 17 17" fill="none" xmlns="http://www.w3.org/2000/svg">
<path d="M10.9936 10.2496L9.78124 11.7651C7.9036 10.6616 6.33881 9.0969 5.23516 7.21934L6.75064 6.00702C6.92822 5.86482 7.05371 5.66781 7.10753 5.44676C7.16135 5.22572 7.14046 4.99308 7.04814 4.78515L5.66653 1.6745C5.56752 1.45134 5.39244 1.27061 5.17253 1.16454C4.95263 1.05848 4.7022 1.03399 4.46591 1.09544L1.83658 1.77757C1.59119 1.84168 1.37785 1.99358 1.23698 2.20449C1.09611 2.41539 1.03751 2.67065 1.07228 2.92188C1.53378 6.20807 3.05257 9.25468 5.39906 11.6012C7.74554 13.9477 10.7922 15.4664 14.0783 15.9279C14.3295 15.9626 14.5847 15.904 14.7955 15.7631C15.0063 15.6223 15.1582 15.409 15.2223 15.1637L15.9044 12.534C15.9658 12.2977 15.9412 12.0474 15.8353 11.8275C15.7293 11.6077 15.5487 11.4325 15.3257 11.3333L12.2154 9.95209C12.0075 9.8597 11.7749 9.83878 11.5538 9.89261C11.3327 9.94643 11.1357 10.072 10.9936 10.2496V10.2496Z" stroke="#2D947A" stroke-width="1.5" stroke-miterlimit="10" stroke-linecap="round" stroke-linejoin="round"/>
</svg>
