<svg width="15" height="15" viewBox="0 0 15 15" fill="none" xmlns="http://www.w3.org/2000/svg">
<path d="M12.4058 7.26855L4.06699 1.70934C4.02513 1.68141 3.97648 1.66537 3.92621 1.66293C3.87595 1.66048 3.82596 1.67173 3.78159 1.69547C3.73722 1.71921 3.70013 1.75455 3.67427 1.79773C3.64841 1.8409 3.63476 1.89028 3.63477 1.9406V13.059C3.63476 13.1093 3.64841 13.1587 3.67427 13.2019C3.70013 13.2451 3.73722 13.2804 3.78159 13.3041C3.82596 13.3279 3.87595 13.3391 3.92621 13.3367C3.97648 13.3343 4.02513 13.3182 4.06699 13.2903L12.4058 7.73107C12.4439 7.70569 12.4751 7.6713 12.4967 7.63096C12.5183 7.59061 12.5296 7.54557 12.5296 7.49981C12.5296 7.45405 12.5183 7.40901 12.4967 7.36866C12.4751 7.32832 12.4439 7.29393 12.4058 7.26855Z" fill="#FF794D"/>
</svg>
