<svg width="9" height="9" viewBox="0 0 9 9" fill="none" xmlns="http://www.w3.org/2000/svg">
<path d="M7.79156 4.34387L2.16656 0.593875C2.13832 0.575036 2.1055 0.564215 2.0716 0.562568C2.03769 0.560921 2.00397 0.56851 1.97404 0.584524C1.94411 0.600538 1.91909 0.624378 1.90165 0.653499C1.88421 0.68262 1.87499 0.71593 1.875 0.749875V8.24987C1.87499 8.28382 1.88421 8.31713 1.90165 8.34625C1.91909 8.37537 1.94411 8.39921 1.97404 8.41523C2.00397 8.43124 2.03769 8.43883 2.0716 8.43718C2.1055 8.43553 2.13832 8.42471 2.16656 8.40587L7.79156 4.65588C7.81724 4.63875 7.8383 4.61555 7.85286 4.58834C7.86742 4.56113 7.87504 4.53074 7.87504 4.49988C7.87504 4.46901 7.86742 4.43862 7.85286 4.41141C7.8383 4.3842 7.81724 4.361 7.79156 4.34387Z" fill="white"/>
</svg>
