<svg xmlns="http://www.w3.org/2000/svg" width="90" height="94" viewBox="0 0 90 94"><g><g clip-path="url(#clip-48DD8E23-7C31-469E-8462-5AECF4941B21)" opacity=".08"><g opacity=".08"><path fill="#5a7a84" d="M12 20c5.523 0 10-4.477 10-10S17.523 0 12 0 2 4.477 2 10s4.477 10 10 10z"/></g><g opacity=".08"><path fill="#335262" d="M87.946 8.121H50.98v-6.09C50.98.908 50.06 0 48.926 0a2.042 2.042 0 0 0-2.054 2.03v6.091h-20.7c.699 4.49-.857 9.036-4.172 12.182h28.98c4.537 0 8.215 3.636 8.215 8.121s-3.678 8.121-8.215 8.121H28.389V67h59.557A2.042 2.042 0 0 0 90 64.97V10.152c0-1.122-.92-2.03-2.054-2.03z"/></g><g opacity=".08"><path fill="#5a7a84" d="M55 29.059A4.066 4.066 0 0 0 50.926 25h-40.74C4.562 25.007.005 29.546 0 35.147v53.78C0 91.727 2.28 94 5.093 94c2.812 0 5.092-2.272 5.092-5.074V63.56h4.074v25.367c0 2.802 2.28 5.074 5.093 5.074 2.812 0 5.092-2.272 5.092-5.074V33.118h26.482A4.066 4.066 0 0 0 55 29.058z"/></g><g opacity=".08"><path fill="#335262" d="M65.433 72H61l9.085 20.788A2.041 2.041 0 0 0 71.96 94c.276.001.55-.054.804-.162a1.986 1.986 0 0 0 1.07-2.626z"/></g></g></g></svg>