<svg xmlns="http://www.w3.org/2000/svg" width="37" height="37" viewBox="0 0 37 37"><g><g><g><path fill="none" stroke="#f46f7c" stroke-linecap="round" stroke-linejoin="round" stroke-miterlimit="20" stroke-width="2" d="M18.498 24.066a5.568 5.568 0 1 0 0-11.136 5.568 5.568 0 0 0 0 11.136z"/></g><g><path fill="none" stroke="#f46f7c" stroke-linecap="round" stroke-linejoin="round" stroke-miterlimit="20" stroke-width="2" d="M31.223 18.5a12.764 12.764 0 0 0-.299-2.725l4.318-3.27v0l-3.182-5.51v0l-5 2.11a12.698 12.698 0 0 0-4.71-2.736L21.677 1v0h-6.364v0l-.671 5.37a12.698 12.698 0 0 0-4.711 2.734l-5-2.11v0L1.75 12.506v0l4.318 3.27a12.574 12.574 0 0 0 0 5.45l-4.318 3.27v0l3.182 5.51v0l5-2.11a12.698 12.698 0 0 0 4.71 2.736L15.315 36v0h6.364v0l.671-5.37a12.698 12.698 0 0 0 4.71-2.734l5.001 2.11v0l3.182-5.511v0l-4.318-3.27c.197-.895.298-1.808.3-2.725z"/></g></g></g></svg>