<svg width="19" height="19" viewBox="0 0 19 19" fill="none" xmlns="http://www.w3.org/2000/svg">
<path d="M0.791992 8.3125V15.0417C0.791992 15.4616 0.958807 15.8643 1.25574 16.1613C1.55267 16.4582 1.9554 16.625 2.37533 16.625H16.6253C17.0453 16.625 17.448 16.4582 17.7449 16.1613C18.0418 15.8643 18.2087 15.4616 18.2087 15.0417V8.3125" stroke="#2D947A" stroke-width="1.5" stroke-miterlimit="10" stroke-linecap="round" stroke-linejoin="round"/>
<path d="M18.2087 5.54167V3.95833C18.2087 3.53841 18.0418 3.13568 17.7449 2.83875C17.448 2.54181 17.0453 2.375 16.6253 2.375H2.37533C1.9554 2.375 1.55267 2.54181 1.25574 2.83875C0.958807 3.13568 0.791992 3.53841 0.791992 3.95833V5.54167L9.50033 11.0833L18.2087 5.54167Z" stroke="#2D947A" stroke-width="1.5" stroke-miterlimit="10" stroke-linecap="round" stroke-linejoin="round"/>
</svg>
